<mxfile host="app.diagrams.net" modified="2023-10-23T02:33:51.528Z" agent="Mozilla/5.0 (Macintosh; Intel Mac OS X 10_15_7) AppleWebKit/605.1.15 (KHTML, like Gecko) Version/17.0 Safari/605.1.15" etag="l67mA3t-TgrxS9T5gc3x" version="22.0.6" type="google">
  <diagram id="mO78dEF26jjpZMooWFn6" name="Page-1">
    <mxGraphModel grid="1" page="1" gridSize="10" guides="1" tooltips="1" connect="1" arrows="1" fold="1" pageScale="1" pageWidth="850" pageHeight="1100" math="0" shadow="0">
      <root>
        <mxCell id="0" />
        <mxCell id="1" parent="0" />
        <mxCell id="8nfDc42pV2UTNJH3QgJd-117" value="" style="edgeStyle=orthogonalEdgeStyle;rounded=0;orthogonalLoop=1;jettySize=auto;html=1;" edge="1" parent="1" source="KTClfo4uXemYkgCOEFmI-3" target="KTClfo4uXemYkgCOEFmI-5">
          <mxGeometry relative="1" as="geometry" />
        </mxCell>
        <mxCell id="KTClfo4uXemYkgCOEFmI-3" value="Start" style="strokeWidth=2;html=1;shape=mxgraph.flowchart.start_1;whiteSpace=wrap;" vertex="1" parent="1">
          <mxGeometry x="-190" y="-330" width="100" height="60" as="geometry" />
        </mxCell>
        <mxCell id="8nfDc42pV2UTNJH3QgJd-56" style="edgeStyle=orthogonalEdgeStyle;rounded=0;orthogonalLoop=1;jettySize=auto;html=1;" edge="1" parent="1" source="KTClfo4uXemYkgCOEFmI-5" target="KTClfo4uXemYkgCOEFmI-6">
          <mxGeometry relative="1" as="geometry" />
        </mxCell>
        <mxCell id="KTClfo4uXemYkgCOEFmI-5" value="Insurer or insured places policy requirements" style="html=1;strokeWidth=2;shape=manualInput;whiteSpace=wrap;rounded=1;size=26;arcSize=11;" vertex="1" parent="1">
          <mxGeometry x="-60" y="-342.5" width="140" height="85" as="geometry" />
        </mxCell>
        <mxCell id="8nfDc42pV2UTNJH3QgJd-115" style="edgeStyle=orthogonalEdgeStyle;rounded=0;orthogonalLoop=1;jettySize=auto;html=1;entryX=0;entryY=0.5;entryDx=0;entryDy=0;" edge="1" parent="1" source="KTClfo4uXemYkgCOEFmI-6" target="8nfDc42pV2UTNJH3QgJd-114">
          <mxGeometry relative="1" as="geometry" />
        </mxCell>
        <mxCell id="KTClfo4uXemYkgCOEFmI-6" value="Policy order to fill is created." style="rounded=1;whiteSpace=wrap;html=1;absoluteArcSize=1;arcSize=14;strokeWidth=2;" vertex="1" parent="1">
          <mxGeometry x="110" y="-350" width="100" height="100" as="geometry" />
        </mxCell>
        <mxCell id="8nfDc42pV2UTNJH3QgJd-130" value="" style="edgeStyle=orthogonalEdgeStyle;rounded=0;orthogonalLoop=1;jettySize=auto;html=1;" edge="1" parent="1" source="KTClfo4uXemYkgCOEFmI-9" target="8nfDc42pV2UTNJH3QgJd-118">
          <mxGeometry relative="1" as="geometry" />
        </mxCell>
        <mxCell id="8nfDc42pV2UTNJH3QgJd-131" value="Yes" style="edgeLabel;html=1;align=center;verticalAlign=middle;resizable=0;points=[];" connectable="0" vertex="1" parent="8nfDc42pV2UTNJH3QgJd-130">
          <mxGeometry x="-0.3786" y="-4" relative="1" as="geometry">
            <mxPoint x="4" y="-4" as="offset" />
          </mxGeometry>
        </mxCell>
        <mxCell id="8nfDc42pV2UTNJH3QgJd-149" value="" style="edgeStyle=orthogonalEdgeStyle;rounded=0;orthogonalLoop=1;jettySize=auto;html=1;" edge="1" parent="1" source="KTClfo4uXemYkgCOEFmI-9" target="8nfDc42pV2UTNJH3QgJd-148">
          <mxGeometry relative="1" as="geometry" />
        </mxCell>
        <mxCell id="8nfDc42pV2UTNJH3QgJd-167" value="No" style="edgeLabel;html=1;align=center;verticalAlign=middle;resizable=0;points=[];" connectable="0" vertex="1" parent="8nfDc42pV2UTNJH3QgJd-149">
          <mxGeometry x="0.2597" y="2" relative="1" as="geometry">
            <mxPoint as="offset" />
          </mxGeometry>
        </mxCell>
        <mxCell id="KTClfo4uXemYkgCOEFmI-9" value="Does bet&lt;br&gt;&amp;nbsp;order &lt;br&gt;match with another&lt;br&gt;&amp;nbsp;bet order in&lt;br&gt;&amp;nbsp;the pending&lt;br&gt;&amp;nbsp;queue?" style="strokeWidth=2;html=1;shape=mxgraph.flowchart.decision;whiteSpace=wrap;" vertex="1" parent="1">
          <mxGeometry x="220" y="615" width="160" height="160" as="geometry" />
        </mxCell>
        <mxCell id="KTClfo4uXemYkgCOEFmI-10" value="Add policy to pending policy order queue" style="rounded=1;whiteSpace=wrap;html=1;absoluteArcSize=1;arcSize=14;strokeWidth=2;" vertex="1" parent="1">
          <mxGeometry x="150" y="-220" width="100" height="100" as="geometry" />
        </mxCell>
        <mxCell id="KTClfo4uXemYkgCOEFmI-21" value="Yes" style="edgeStyle=orthogonalEdgeStyle;rounded=0;orthogonalLoop=1;jettySize=auto;html=1;exitX=0.5;exitY=1;exitDx=0;exitDy=0;exitPerimeter=0;entryX=0.5;entryY=0;entryDx=0;entryDy=0;" edge="1" parent="1" source="KTClfo4uXemYkgCOEFmI-17" target="8nfDc42pV2UTNJH3QgJd-110">
          <mxGeometry relative="1" as="geometry">
            <mxPoint x="620" y="1090" as="targetPoint" />
          </mxGeometry>
        </mxCell>
        <mxCell id="8nfDc42pV2UTNJH3QgJd-64" style="edgeStyle=orthogonalEdgeStyle;rounded=0;orthogonalLoop=1;jettySize=auto;html=1;entryX=0;entryY=0.5;entryDx=0;entryDy=0;" edge="1" parent="1" source="KTClfo4uXemYkgCOEFmI-17" target="KTClfo4uXemYkgCOEFmI-23">
          <mxGeometry relative="1" as="geometry" />
        </mxCell>
        <mxCell id="8nfDc42pV2UTNJH3QgJd-107" style="edgeStyle=orthogonalEdgeStyle;rounded=0;orthogonalLoop=1;jettySize=auto;html=1;entryX=0;entryY=0.5;entryDx=0;entryDy=0;" edge="1" parent="1" source="KTClfo4uXemYkgCOEFmI-17" target="KTClfo4uXemYkgCOEFmI-24">
          <mxGeometry relative="1" as="geometry" />
        </mxCell>
        <mxCell id="8nfDc42pV2UTNJH3QgJd-108" value="No" style="edgeLabel;html=1;align=center;verticalAlign=middle;resizable=0;points=[];" connectable="0" vertex="1" parent="8nfDc42pV2UTNJH3QgJd-107">
          <mxGeometry x="-0.712" y="-3" relative="1" as="geometry">
            <mxPoint y="-3" as="offset" />
          </mxGeometry>
        </mxCell>
        <mxCell id="KTClfo4uXemYkgCOEFmI-17" value="Is partial&lt;br&gt;&amp;nbsp;amount match?" style="strokeWidth=2;html=1;shape=mxgraph.flowchart.decision;whiteSpace=wrap;" vertex="1" parent="1">
          <mxGeometry x="550" y="635" width="140" height="120" as="geometry" />
        </mxCell>
        <mxCell id="8nfDc42pV2UTNJH3QgJd-134" value="" style="edgeStyle=orthogonalEdgeStyle;rounded=0;orthogonalLoop=1;jettySize=auto;html=1;" edge="1" parent="1" source="KTClfo4uXemYkgCOEFmI-23" target="8nfDc42pV2UTNJH3QgJd-133">
          <mxGeometry relative="1" as="geometry" />
        </mxCell>
        <mxCell id="KTClfo4uXemYkgCOEFmI-23" value="Create matched policy and add to matched queue" style="rounded=1;whiteSpace=wrap;html=1;absoluteArcSize=1;arcSize=14;strokeWidth=2;" vertex="1" parent="1">
          <mxGeometry x="770" y="700" width="100" height="100" as="geometry" />
        </mxCell>
        <mxCell id="8nfDc42pV2UTNJH3QgJd-99" style="edgeStyle=orthogonalEdgeStyle;rounded=0;orthogonalLoop=1;jettySize=auto;html=1;entryX=0;entryY=0.85;entryDx=0;entryDy=0;entryPerimeter=0;" edge="1" parent="1" source="KTClfo4uXemYkgCOEFmI-24" target="8nfDc42pV2UTNJH3QgJd-19">
          <mxGeometry relative="1" as="geometry" />
        </mxCell>
        <mxCell id="KTClfo4uXemYkgCOEFmI-24" value="Remove matched order to fill from pending queue" style="rounded=1;whiteSpace=wrap;html=1;absoluteArcSize=1;arcSize=14;strokeWidth=2;" vertex="1" parent="1">
          <mxGeometry x="770" y="600" width="100" height="100" as="geometry" />
        </mxCell>
        <mxCell id="KTClfo4uXemYkgCOEFmI-38" style="edgeStyle=orthogonalEdgeStyle;rounded=0;orthogonalLoop=1;jettySize=auto;html=1;exitX=0.5;exitY=0;exitDx=0;exitDy=0;entryX=0.5;entryY=1;entryDx=0;entryDy=0;entryPerimeter=0;exitPerimeter=0;" edge="1" parent="1" source="8nfDc42pV2UTNJH3QgJd-42" target="KTClfo4uXemYkgCOEFmI-9">
          <mxGeometry relative="1" as="geometry">
            <Array as="points" />
          </mxGeometry>
        </mxCell>
        <mxCell id="8nfDc42pV2UTNJH3QgJd-6" value="&lt;font style=&quot;font-size: 21px;&quot;&gt;Place Policy&lt;/font&gt;" style="text;html=1;strokeColor=none;fillColor=none;align=center;verticalAlign=middle;whiteSpace=wrap;rounded=0;" vertex="1" parent="1">
          <mxGeometry x="235" y="-400" width="130" height="30" as="geometry" />
        </mxCell>
        <mxCell id="8nfDc42pV2UTNJH3QgJd-18" value="Matched Policy Order Queue" style="strokeWidth=2;html=1;shape=mxgraph.flowchart.database;whiteSpace=wrap;" vertex="1" parent="1">
          <mxGeometry x="940" y="680" width="130" height="90" as="geometry" />
        </mxCell>
        <mxCell id="8nfDc42pV2UTNJH3QgJd-82" style="edgeStyle=orthogonalEdgeStyle;rounded=0;orthogonalLoop=1;jettySize=auto;html=1;entryX=0;entryY=0.5;entryDx=0;entryDy=0;entryPerimeter=0;exitX=1;exitY=0.85;exitDx=0;exitDy=0;exitPerimeter=0;" edge="1" parent="1" source="8nfDc42pV2UTNJH3QgJd-19" target="8nfDc42pV2UTNJH3QgJd-71">
          <mxGeometry relative="1" as="geometry">
            <Array as="points">
              <mxPoint x="1070" y="695" />
            </Array>
          </mxGeometry>
        </mxCell>
        <mxCell id="8nfDc42pV2UTNJH3QgJd-19" value="Pending Policy Order Queue" style="strokeWidth=2;html=1;shape=mxgraph.flowchart.database;whiteSpace=wrap;" vertex="1" parent="1">
          <mxGeometry x="940" y="620" width="130" height="90" as="geometry" />
        </mxCell>
        <mxCell id="8nfDc42pV2UTNJH3QgJd-126" style="edgeStyle=orthogonalEdgeStyle;rounded=0;orthogonalLoop=1;jettySize=auto;html=1;entryX=0.5;entryY=0;entryDx=0;entryDy=0;entryPerimeter=0;" edge="1" parent="1" source="8nfDc42pV2UTNJH3QgJd-40" target="8nfDc42pV2UTNJH3QgJd-90">
          <mxGeometry relative="1" as="geometry" />
        </mxCell>
        <mxCell id="8nfDc42pV2UTNJH3QgJd-40" value="Insurer&#39;s or insured&#39;s account value, escrow value, and order to fill storage" style="strokeWidth=2;html=1;shape=mxgraph.flowchart.database;whiteSpace=wrap;" vertex="1" parent="1">
          <mxGeometry x="235" y="-100" width="130" height="170" as="geometry" />
        </mxCell>
        <mxCell id="8nfDc42pV2UTNJH3QgJd-42" value="new order to&lt;br&gt;&amp;nbsp;fill&amp;nbsp;" style="strokeWidth=2;html=1;shape=mxgraph.flowchart.stored_data;whiteSpace=wrap;" vertex="1" parent="1">
          <mxGeometry x="250" y="800" width="100" height="60" as="geometry" />
        </mxCell>
        <mxCell id="8nfDc42pV2UTNJH3QgJd-47" value="Increase the insurer&#39;s or insured&#39;s escrow account value by the premium or coverage amount" style="rounded=1;whiteSpace=wrap;html=1;absoluteArcSize=1;arcSize=14;strokeWidth=2;" vertex="1" parent="1">
          <mxGeometry x="350" y="-220" width="100" height="100" as="geometry" />
        </mxCell>
        <mxCell id="8nfDc42pV2UTNJH3QgJd-59" value="End" style="strokeWidth=2;html=1;shape=mxgraph.flowchart.terminator;whiteSpace=wrap;" vertex="1" parent="1">
          <mxGeometry x="1120" y="780" width="100" height="60" as="geometry" />
        </mxCell>
        <mxCell id="8nfDc42pV2UTNJH3QgJd-67" value="End" style="strokeWidth=2;html=1;shape=mxgraph.flowchart.terminator;whiteSpace=wrap;" vertex="1" parent="1">
          <mxGeometry x="-130" y="665" width="100" height="60" as="geometry" />
        </mxCell>
        <mxCell id="8nfDc42pV2UTNJH3QgJd-76" style="edgeStyle=orthogonalEdgeStyle;rounded=0;orthogonalLoop=1;jettySize=auto;html=1;entryX=1;entryY=0.25;entryDx=0;entryDy=0;" edge="1" parent="1" source="8nfDc42pV2UTNJH3QgJd-71" target="8nfDc42pV2UTNJH3QgJd-136">
          <mxGeometry relative="1" as="geometry">
            <mxPoint x="730" y="650" as="targetPoint" />
            <Array as="points">
              <mxPoint x="1170" y="535" />
            </Array>
          </mxGeometry>
        </mxCell>
        <mxCell id="8nfDc42pV2UTNJH3QgJd-78" value="No" style="edgeLabel;html=1;align=center;verticalAlign=middle;resizable=0;points=[];" connectable="0" vertex="1" parent="8nfDc42pV2UTNJH3QgJd-76">
          <mxGeometry x="-0.8884" y="4" relative="1" as="geometry">
            <mxPoint x="4" as="offset" />
          </mxGeometry>
        </mxCell>
        <mxCell id="8nfDc42pV2UTNJH3QgJd-71" value="Is new matched policy order stored?" style="strokeWidth=2;html=1;shape=mxgraph.flowchart.decision;whiteSpace=wrap;" vertex="1" parent="1">
          <mxGeometry x="1120" y="645" width="100" height="100" as="geometry" />
        </mxCell>
        <mxCell id="8nfDc42pV2UTNJH3QgJd-92" style="edgeStyle=orthogonalEdgeStyle;rounded=0;orthogonalLoop=1;jettySize=auto;html=1;entryX=0.5;entryY=0;entryDx=0;entryDy=0;" edge="1" parent="1" source="8nfDc42pV2UTNJH3QgJd-90" target="8nfDc42pV2UTNJH3QgJd-145">
          <mxGeometry relative="1" as="geometry" />
        </mxCell>
        <mxCell id="8nfDc42pV2UTNJH3QgJd-93" value="No" style="edgeLabel;html=1;align=center;verticalAlign=middle;resizable=0;points=[];" connectable="0" vertex="1" parent="8nfDc42pV2UTNJH3QgJd-92">
          <mxGeometry x="-0.6062" y="1" relative="1" as="geometry">
            <mxPoint x="35" y="-1" as="offset" />
          </mxGeometry>
        </mxCell>
        <mxCell id="8nfDc42pV2UTNJH3QgJd-125" style="edgeStyle=orthogonalEdgeStyle;rounded=0;orthogonalLoop=1;jettySize=auto;html=1;entryX=0.5;entryY=0;entryDx=0;entryDy=0;entryPerimeter=0;" edge="1" parent="1" source="8nfDc42pV2UTNJH3QgJd-90" target="8nfDc42pV2UTNJH3QgJd-138">
          <mxGeometry relative="1" as="geometry">
            <mxPoint x="300" y="240" as="targetPoint" />
          </mxGeometry>
        </mxCell>
        <mxCell id="8nfDc42pV2UTNJH3QgJd-127" value="Yes" style="edgeLabel;html=1;align=center;verticalAlign=middle;resizable=0;points=[];" connectable="0" vertex="1" parent="8nfDc42pV2UTNJH3QgJd-125">
          <mxGeometry x="-0.3333" y="-1" relative="1" as="geometry">
            <mxPoint as="offset" />
          </mxGeometry>
        </mxCell>
        <mxCell id="8nfDc42pV2UTNJH3QgJd-90" value="Is policy order to fill stored?" style="strokeWidth=2;html=1;shape=mxgraph.flowchart.decision;whiteSpace=wrap;" vertex="1" parent="1">
          <mxGeometry x="250" y="100" width="100" height="100" as="geometry" />
        </mxCell>
        <mxCell id="8nfDc42pV2UTNJH3QgJd-128" style="edgeStyle=orthogonalEdgeStyle;rounded=0;orthogonalLoop=1;jettySize=auto;html=1;entryX=0.5;entryY=0;entryDx=0;entryDy=0;entryPerimeter=0;" edge="1" parent="1" source="8nfDc42pV2UTNJH3QgJd-48" target="8nfDc42pV2UTNJH3QgJd-40">
          <mxGeometry relative="1" as="geometry" />
        </mxCell>
        <mxCell id="8nfDc42pV2UTNJH3QgJd-48" value="Decrease the insurer&#39;s or insured&#39;s account value by the premium or coverage amount" style="rounded=1;whiteSpace=wrap;html=1;absoluteArcSize=1;arcSize=14;strokeWidth=2;" vertex="1" parent="1">
          <mxGeometry x="250" y="-220" width="100" height="100" as="geometry" />
        </mxCell>
        <mxCell id="8nfDc42pV2UTNJH3QgJd-112" style="edgeStyle=orthogonalEdgeStyle;rounded=0;orthogonalLoop=1;jettySize=auto;html=1;entryX=1;entryY=0.5;entryDx=0;entryDy=0;" edge="1" parent="1" source="8nfDc42pV2UTNJH3QgJd-110" target="8nfDc42pV2UTNJH3QgJd-151">
          <mxGeometry relative="1" as="geometry" />
        </mxCell>
        <mxCell id="8nfDc42pV2UTNJH3QgJd-110" value="Split Order" style="verticalLabelPosition=bottom;verticalAlign=top;html=1;shape=offPageConnector;rounded=0;size=0.5;" vertex="1" parent="1">
          <mxGeometry x="590" y="940" width="60" height="60" as="geometry" />
        </mxCell>
        <mxCell id="8nfDc42pV2UTNJH3QgJd-116" value="" style="edgeStyle=orthogonalEdgeStyle;rounded=0;orthogonalLoop=1;jettySize=auto;html=1;" edge="1" parent="1" source="8nfDc42pV2UTNJH3QgJd-114" target="8nfDc42pV2UTNJH3QgJd-48">
          <mxGeometry relative="1" as="geometry" />
        </mxCell>
        <mxCell id="8nfDc42pV2UTNJH3QgJd-114" value="order to fill" style="shape=parallelogram;html=1;strokeWidth=2;perimeter=parallelogramPerimeter;whiteSpace=wrap;rounded=1;arcSize=12;size=0.23;" vertex="1" parent="1">
          <mxGeometry x="250" y="-330" width="100" height="60" as="geometry" />
        </mxCell>
        <mxCell id="8nfDc42pV2UTNJH3QgJd-129" value="" style="edgeStyle=orthogonalEdgeStyle;rounded=0;orthogonalLoop=1;jettySize=auto;html=1;" edge="1" parent="1" source="8nfDc42pV2UTNJH3QgJd-118" target="KTClfo4uXemYkgCOEFmI-17">
          <mxGeometry relative="1" as="geometry" />
        </mxCell>
        <mxCell id="8nfDc42pV2UTNJH3QgJd-118" value="Matched&lt;br&gt;&amp;nbsp;order &lt;br&gt;to fill" style="shape=parallelogram;html=1;strokeWidth=2;perimeter=parallelogramPerimeter;whiteSpace=wrap;rounded=1;arcSize=12;size=0.23;" vertex="1" parent="1">
          <mxGeometry x="420" y="665" width="100" height="60" as="geometry" />
        </mxCell>
        <mxCell id="8nfDc42pV2UTNJH3QgJd-123" style="edgeStyle=orthogonalEdgeStyle;rounded=0;orthogonalLoop=1;jettySize=auto;html=1;entryX=0.5;entryY=0;entryDx=0;entryDy=0;entryPerimeter=0;" edge="1" parent="1" source="8nfDc42pV2UTNJH3QgJd-136" target="KTClfo4uXemYkgCOEFmI-9">
          <mxGeometry relative="1" as="geometry">
            <mxPoint x="300" y="510" as="sourcePoint" />
          </mxGeometry>
        </mxCell>
        <mxCell id="8nfDc42pV2UTNJH3QgJd-135" style="edgeStyle=orthogonalEdgeStyle;rounded=0;orthogonalLoop=1;jettySize=auto;html=1;entryX=0;entryY=0.85;entryDx=0;entryDy=0;entryPerimeter=0;" edge="1" parent="1" source="8nfDc42pV2UTNJH3QgJd-133" target="8nfDc42pV2UTNJH3QgJd-19">
          <mxGeometry relative="1" as="geometry" />
        </mxCell>
        <mxCell id="8nfDc42pV2UTNJH3QgJd-133" value="Matched &lt;br&gt;policy order" style="shape=parallelogram;html=1;strokeWidth=2;perimeter=parallelogramPerimeter;whiteSpace=wrap;rounded=1;arcSize=12;size=0.23;" vertex="1" parent="1">
          <mxGeometry x="770" y="830" width="100" height="60" as="geometry" />
        </mxCell>
        <mxCell id="8nfDc42pV2UTNJH3QgJd-136" value="&lt;span style=&quot;font-size: 12.000001px;&quot;&gt;Match order to fill&lt;/span&gt;" style="verticalLabelPosition=bottom;verticalAlign=top;html=1;shape=offPageConnector;rounded=0;size=0.5;" vertex="1" parent="1">
          <mxGeometry x="270" y="520" width="60" height="60" as="geometry" />
        </mxCell>
        <mxCell id="8nfDc42pV2UTNJH3QgJd-140" value="" style="edgeStyle=orthogonalEdgeStyle;rounded=0;orthogonalLoop=1;jettySize=auto;html=1;" edge="1" parent="1" source="8nfDc42pV2UTNJH3QgJd-138" target="8nfDc42pV2UTNJH3QgJd-139">
          <mxGeometry relative="1" as="geometry" />
        </mxCell>
        <mxCell id="8nfDc42pV2UTNJH3QgJd-138" value="Delay matching for 60 seconds &amp;nbsp;" style="strokeWidth=2;html=1;shape=mxgraph.flowchart.delay;whiteSpace=wrap;" vertex="1" parent="1">
          <mxGeometry x="250" y="250" width="100" height="60" as="geometry" />
        </mxCell>
        <mxCell id="8nfDc42pV2UTNJH3QgJd-141" style="edgeStyle=orthogonalEdgeStyle;rounded=0;orthogonalLoop=1;jettySize=auto;html=1;entryX=0.5;entryY=0;entryDx=0;entryDy=0;" edge="1" parent="1" source="8nfDc42pV2UTNJH3QgJd-139" target="8nfDc42pV2UTNJH3QgJd-136">
          <mxGeometry relative="1" as="geometry" />
        </mxCell>
        <mxCell id="8nfDc42pV2UTNJH3QgJd-142" value="No" style="edgeLabel;html=1;align=center;verticalAlign=middle;resizable=0;points=[];" connectable="0" vertex="1" parent="8nfDc42pV2UTNJH3QgJd-141">
          <mxGeometry x="0.28" y="1" relative="1" as="geometry">
            <mxPoint x="-1" y="-12" as="offset" />
          </mxGeometry>
        </mxCell>
        <mxCell id="8nfDc42pV2UTNJH3QgJd-143" style="edgeStyle=orthogonalEdgeStyle;rounded=0;orthogonalLoop=1;jettySize=auto;html=1;entryX=1;entryY=0.5;entryDx=0;entryDy=0;" edge="1" parent="1" source="8nfDc42pV2UTNJH3QgJd-139" target="8nfDc42pV2UTNJH3QgJd-147">
          <mxGeometry relative="1" as="geometry">
            <mxPoint x="50" y="630" as="targetPoint" />
          </mxGeometry>
        </mxCell>
        <mxCell id="8nfDc42pV2UTNJH3QgJd-144" value="Yes" style="edgeLabel;html=1;align=center;verticalAlign=middle;resizable=0;points=[];" connectable="0" vertex="1" parent="8nfDc42pV2UTNJH3QgJd-143">
          <mxGeometry x="-0.6585" y="1" relative="1" as="geometry">
            <mxPoint x="-26" y="-1" as="offset" />
          </mxGeometry>
        </mxCell>
        <mxCell id="8nfDc42pV2UTNJH3QgJd-139" value="Did insurer or insured cancel order?" style="strokeWidth=2;html=1;shape=mxgraph.flowchart.decision;whiteSpace=wrap;" vertex="1" parent="1">
          <mxGeometry x="250" y="370" width="100" height="100" as="geometry" />
        </mxCell>
        <mxCell id="8nfDc42pV2UTNJH3QgJd-146" style="edgeStyle=orthogonalEdgeStyle;rounded=0;orthogonalLoop=1;jettySize=auto;html=1;entryX=0.5;entryY=0;entryDx=0;entryDy=0;entryPerimeter=0;" edge="1" parent="1" source="8nfDc42pV2UTNJH3QgJd-145" target="8nfDc42pV2UTNJH3QgJd-67">
          <mxGeometry relative="1" as="geometry" />
        </mxCell>
        <mxCell id="8nfDc42pV2UTNJH3QgJd-145" value="Notify user of error creating policy order" style="rounded=1;whiteSpace=wrap;html=1;absoluteArcSize=1;arcSize=14;strokeWidth=2;" vertex="1" parent="1">
          <mxGeometry x="-130" y="210" width="100" height="100" as="geometry" />
        </mxCell>
        <mxCell id="8nfDc42pV2UTNJH3QgJd-153" style="edgeStyle=orthogonalEdgeStyle;rounded=0;orthogonalLoop=1;jettySize=auto;html=1;entryX=0.5;entryY=0;entryDx=0;entryDy=0;entryPerimeter=0;" edge="1" parent="1" source="8nfDc42pV2UTNJH3QgJd-147" target="8nfDc42pV2UTNJH3QgJd-67">
          <mxGeometry relative="1" as="geometry" />
        </mxCell>
        <mxCell id="8nfDc42pV2UTNJH3QgJd-147" value="Notify insurer or insured that policy was canceled." style="rounded=1;whiteSpace=wrap;html=1;absoluteArcSize=1;arcSize=14;strokeWidth=2;" vertex="1" parent="1">
          <mxGeometry x="70" y="370" width="100" height="100" as="geometry" />
        </mxCell>
        <mxCell id="8nfDc42pV2UTNJH3QgJd-150" value="" style="edgeStyle=orthogonalEdgeStyle;rounded=0;orthogonalLoop=1;jettySize=auto;html=1;" edge="1" parent="1" source="8nfDc42pV2UTNJH3QgJd-148" target="8nfDc42pV2UTNJH3QgJd-67">
          <mxGeometry relative="1" as="geometry" />
        </mxCell>
        <mxCell id="8nfDc42pV2UTNJH3QgJd-148" value="Notify insurer or insured that policy is waiting to be matched" style="rounded=1;whiteSpace=wrap;html=1;absoluteArcSize=1;arcSize=14;strokeWidth=2;" vertex="1" parent="1">
          <mxGeometry x="20" y="645" width="100" height="100" as="geometry" />
        </mxCell>
        <mxCell id="8nfDc42pV2UTNJH3QgJd-152" style="edgeStyle=orthogonalEdgeStyle;rounded=0;orthogonalLoop=1;jettySize=auto;html=1;entryX=1;entryY=0.5;entryDx=0;entryDy=0;entryPerimeter=0;" edge="1" parent="1" source="8nfDc42pV2UTNJH3QgJd-151" target="8nfDc42pV2UTNJH3QgJd-154">
          <mxGeometry relative="1" as="geometry" />
        </mxCell>
        <mxCell id="8nfDc42pV2UTNJH3QgJd-151" value="Notify insured or insurer that partial amount of their order has been filled" style="rounded=1;whiteSpace=wrap;html=1;absoluteArcSize=1;arcSize=14;strokeWidth=2;" vertex="1" parent="1">
          <mxGeometry x="410" y="920" width="100" height="100" as="geometry" />
        </mxCell>
        <mxCell id="8nfDc42pV2UTNJH3QgJd-156" value="Yes" style="edgeStyle=orthogonalEdgeStyle;rounded=0;orthogonalLoop=1;jettySize=auto;html=1;entryX=0.5;entryY=1;entryDx=0;entryDy=0;entryPerimeter=0;" edge="1" parent="1" source="8nfDc42pV2UTNJH3QgJd-154" target="8nfDc42pV2UTNJH3QgJd-42">
          <mxGeometry relative="1" as="geometry" />
        </mxCell>
        <mxCell id="8nfDc42pV2UTNJH3QgJd-157" style="edgeStyle=orthogonalEdgeStyle;rounded=0;orthogonalLoop=1;jettySize=auto;html=1;entryX=0.5;entryY=1;entryDx=0;entryDy=0;entryPerimeter=0;" edge="1" parent="1" source="8nfDc42pV2UTNJH3QgJd-154" target="8nfDc42pV2UTNJH3QgJd-160">
          <mxGeometry relative="1" as="geometry" />
        </mxCell>
        <mxCell id="8nfDc42pV2UTNJH3QgJd-158" value="No" style="edgeLabel;html=1;align=center;verticalAlign=middle;resizable=0;points=[];" connectable="0" vertex="1" parent="8nfDc42pV2UTNJH3QgJd-157">
          <mxGeometry x="-0.2169" y="4" relative="1" as="geometry">
            <mxPoint as="offset" />
          </mxGeometry>
        </mxCell>
        <mxCell id="8nfDc42pV2UTNJH3QgJd-154" value="Was split successful?" style="strokeWidth=2;html=1;shape=mxgraph.flowchart.decision;whiteSpace=wrap;" vertex="1" parent="1">
          <mxGeometry x="220" y="890" width="160" height="160" as="geometry" />
        </mxCell>
        <mxCell id="8nfDc42pV2UTNJH3QgJd-161" style="edgeStyle=orthogonalEdgeStyle;rounded=0;orthogonalLoop=1;jettySize=auto;html=1;entryX=0.5;entryY=1;entryDx=0;entryDy=0;" edge="1" parent="1" source="8nfDc42pV2UTNJH3QgJd-160" target="8nfDc42pV2UTNJH3QgJd-148">
          <mxGeometry relative="1" as="geometry" />
        </mxCell>
        <mxCell id="8nfDc42pV2UTNJH3QgJd-162" value="Yes" style="edgeLabel;html=1;align=center;verticalAlign=middle;resizable=0;points=[];" connectable="0" vertex="1" parent="8nfDc42pV2UTNJH3QgJd-161">
          <mxGeometry x="-0.1863" y="-1" relative="1" as="geometry">
            <mxPoint as="offset" />
          </mxGeometry>
        </mxCell>
        <mxCell id="8nfDc42pV2UTNJH3QgJd-164" style="edgeStyle=orthogonalEdgeStyle;rounded=0;orthogonalLoop=1;jettySize=auto;html=1;entryX=0.76;entryY=0.967;entryDx=0;entryDy=0;entryPerimeter=0;exitX=1;exitY=0.5;exitDx=0;exitDy=0;exitPerimeter=0;jumpStyle=line;" edge="1" parent="1" source="8nfDc42pV2UTNJH3QgJd-160" target="8nfDc42pV2UTNJH3QgJd-163">
          <mxGeometry relative="1" as="geometry">
            <Array as="points">
              <mxPoint x="190" y="850" />
              <mxPoint x="190" y="570" />
              <mxPoint x="211" y="570" />
            </Array>
          </mxGeometry>
        </mxCell>
        <mxCell id="8nfDc42pV2UTNJH3QgJd-165" value="No" style="edgeLabel;html=1;align=center;verticalAlign=middle;resizable=0;points=[];rotation=0;" connectable="0" vertex="1" parent="8nfDc42pV2UTNJH3QgJd-164">
          <mxGeometry x="0.2181" y="-1" relative="1" as="geometry">
            <mxPoint x="-1" y="106" as="offset" />
          </mxGeometry>
        </mxCell>
        <mxCell id="8nfDc42pV2UTNJH3QgJd-160" value="&lt;span style=&quot;font-size: 12.000001px;&quot;&gt;Is loop limit?&lt;/span&gt;" style="strokeWidth=2;html=1;shape=mxgraph.flowchart.decision;whiteSpace=wrap;" vertex="1" parent="1">
          <mxGeometry x="20" y="800" width="100" height="100" as="geometry" />
        </mxCell>
        <mxCell id="8nfDc42pV2UTNJH3QgJd-166" style="edgeStyle=orthogonalEdgeStyle;rounded=0;jumpStyle=line;orthogonalLoop=1;jettySize=auto;html=1;entryX=0;entryY=0.5;entryDx=0;entryDy=0;" edge="1" parent="1" source="8nfDc42pV2UTNJH3QgJd-163" target="8nfDc42pV2UTNJH3QgJd-136">
          <mxGeometry relative="1" as="geometry" />
        </mxCell>
        <mxCell id="8nfDc42pV2UTNJH3QgJd-163" value="original order to&lt;br&gt;&amp;nbsp;fill&amp;nbsp;" style="strokeWidth=2;html=1;shape=mxgraph.flowchart.stored_data;whiteSpace=wrap;" vertex="1" parent="1">
          <mxGeometry x="135" y="520" width="100" height="60" as="geometry" />
        </mxCell>
        <mxCell id="nl3MnLT1CdIb7YgamlD8-1" style="edgeStyle=orthogonalEdgeStyle;rounded=0;orthogonalLoop=1;jettySize=auto;html=1;exitX=0.5;exitY=1;exitDx=0;exitDy=0;exitPerimeter=0;entryX=0.5;entryY=0;entryDx=0;entryDy=0;entryPerimeter=0;" edge="1" parent="1" source="8nfDc42pV2UTNJH3QgJd-71" target="8nfDc42pV2UTNJH3QgJd-59">
          <mxGeometry relative="1" as="geometry" />
        </mxCell>
        <mxCell id="nl3MnLT1CdIb7YgamlD8-2" value="Yes" style="edgeLabel;html=1;align=center;verticalAlign=middle;resizable=0;points=[];" connectable="0" vertex="1" parent="nl3MnLT1CdIb7YgamlD8-1">
          <mxGeometry x="-0.3714" y="2" relative="1" as="geometry">
            <mxPoint y="-1" as="offset" />
          </mxGeometry>
        </mxCell>
      </root>
    </mxGraphModel>
  </diagram>
</mxfile>
